<?xml version="1.0" encoding="UTF-8" standalone="no"?>
<svg
   xmlns:dc="http://purl.org/dc/elements/1.1/"
   xmlns:cc="http://creativecommons.org/ns#"
   xmlns:rdf="http://www.w3.org/1999/02/22-rdf-syntax-ns#"
   xmlns:svg="http://www.w3.org/2000/svg"
   xmlns="http://www.w3.org/2000/svg"
   xmlns:xlink="http://www.w3.org/1999/xlink"
   xmlns:sodipodi="http://sodipodi.sourceforge.net/DTD/sodipodi-0.dtd"
   xmlns:inkscape="http://www.inkscape.org/namespaces/inkscape"
   version="1.1"
   preserveAspectRatio="xMidYMid meet"
   viewBox="0 0 430 430"
   width="430"
   height="430"
   id="svg940"
   sodipodi:docname="circles-gray-transparent.svg"
   inkscape:version="1.0.2 (e86c870879, 2021-01-15, custom)">
  <metadata
     id="metadata944">
    <rdf:RDF>
      <cc:Work
         rdf:about="">
        <dc:format>image/svg+xml</dc:format>
        <dc:type
           rdf:resource="http://purl.org/dc/dcmitype/StillImage" />
        <dc:title></dc:title>
      </cc:Work>
    </rdf:RDF>
  </metadata>
  <sodipodi:namedview
     pagecolor="#ffffff"
     bordercolor="#666666"
     borderopacity="1"
     objecttolerance="10"
     gridtolerance="10"
     guidetolerance="10"
     inkscape:pageopacity="0"
     inkscape:pageshadow="2"
     inkscape:window-width="1920"
     inkscape:window-height="1051"
     id="namedview942"
     showgrid="false"
     inkscape:zoom="2.0465116"
     inkscape:cx="120.9375"
     inkscape:cy="215"
     inkscape:window-x="-9"
     inkscape:window-y="-9"
     inkscape:window-maximized="1"
     inkscape:current-layer="g938" />
  <defs
     id="defs918">
    <path
       d="M200 100C200 155.19 155.19 200 100 200C44.81 200 0 155.19 0 100C0 44.81 44.81 0 100 0C155.19 0 200 44.81 200 100Z"
       id="dhZYd15Vf" />
    <path
       d="M430 100C430 155.19 385.19 200 330 200C274.81 200 230 155.19 230 100C230 44.81 274.81 0 330 0C385.19 0 430 44.81 430 100Z"
       id="b1PqPKiPLd" />
    <path
       d="M200 329.29C200 384.95 155.19 430.14 100 430.14C44.81 430.14 0 384.95 0 329.29C0 273.63 44.81 228.44 100 228.44C155.19 228.44 200 273.63 200 329.29Z"
       id="b6XTrNc4C" />
    <path
       d="M430 329.29C430 384.95 385.19 430.14 330 430.14C274.81 430.14 230 384.95 230 329.29C230 273.63 274.81 228.44 330 228.44C385.19 228.44 430 273.63 430 329.29Z"
       id="b43uDuMcAs" />
  </defs>
  <g
     id="g938"
     style="fill:#cccccc">
    <g
       id="g936"
       style="fill:#c6c6c6;fill-opacity:1">
      <g
         id="g922"
         style="fill:#c6c6c6;fill-opacity:1">
        <use
           xlink:href="#dhZYd15Vf"
           opacity="1"
           fill="#00a8a8"
           fill-opacity="1"
           id="use920"
           style="fill:#c6c6c6;fill-opacity:1" />
      </g>
      <g
         id="g926"
         style="fill:#c6c6c6;fill-opacity:1">
        <use
           xlink:href="#b1PqPKiPLd"
           opacity="1"
           fill="#cb4335"
           fill-opacity="1"
           id="use924"
           style="fill:#c6c6c6;fill-opacity:1" />
      </g>
      <g
         id="g930"
         style="fill:#c6c6c6;fill-opacity:1">
        <use
           xlink:href="#b6XTrNc4C"
           opacity="1"
           fill="#c6c6c6"
           fill-opacity="1"
           id="use928"
           style="fill:#c6c6c6;fill-opacity:1" />
      </g>
      <g
         id="g934"
         style="fill:#c6c6c6;fill-opacity:1">
        <use
           xlink:href="#b43uDuMcAs"
           opacity="1"
           fill="#229954"
           fill-opacity="1"
           id="use932"
           style="fill:#c6c6c6;fill-opacity:1" />
      </g>
    </g>
  </g>
</svg>
