<?xml version="1.0" encoding="UTF-8" standalone="no"?>
<!DOCTYPE svg PUBLIC "-//W3C//DTD SVG 1.1//EN" "http://www.w3.org/Graphics/SVG/1.1/DTD/svg11.dtd">
<svg version="1.1" xmlns="http://www.w3.org/2000/svg" xmlns:xlink="http://www.w3.org/1999/xlink" preserveAspectRatio="xMidYMid meet" viewBox="0 0 430 430" width="430" height="430"><defs><path d="M200 100C200 155.19 155.19 200 100 200C44.81 200 0 155.19 0 100C0 44.81 44.81 0 100 0C155.19 0 200 44.81 200 100Z" id="dhZYd15Vf"></path><path d="M430 100C430 155.19 385.19 200 330 200C274.81 200 230 155.19 230 100C230 44.81 274.81 0 330 0C385.19 0 430 44.81 430 100Z" id="b1PqPKiPLd"></path><path d="M200 329.29C200 384.95 155.19 430.14 100 430.14C44.81 430.14 0 384.95 0 329.29C0 273.63 44.81 228.44 100 228.44C155.19 228.44 200 273.63 200 329.29Z" id="b6XTrNc4C"></path><path d="M430 329.29C430 384.95 385.19 430.14 330 430.14C274.81 430.14 230 384.95 230 329.29C230 273.63 274.81 228.44 330 228.44C385.19 228.44 430 273.63 430 329.29Z" id="b43uDuMcAs"></path></defs><g><g><g><use xlink:href="#dhZYd15Vf" opacity="1" fill="#00a8a8" fill-opacity="1"></use></g><g><use xlink:href="#b1PqPKiPLd" opacity="1" fill="#cb4335" fill-opacity="1"></use></g><g><use xlink:href="#b6XTrNc4C" opacity="1" fill="#c6c6c6" fill-opacity="1"></use></g><g><use xlink:href="#b43uDuMcAs" opacity="1" fill="#229954" fill-opacity="1"></use></g></g></g></svg>