<?xml version="1.0" encoding="UTF-8" standalone="no"?>
<svg
   xmlns:dc="http://purl.org/dc/elements/1.1/"
   xmlns:cc="http://creativecommons.org/ns#"
   xmlns:rdf="http://www.w3.org/1999/02/22-rdf-syntax-ns#"
   xmlns:svg="http://www.w3.org/2000/svg"
   xmlns="http://www.w3.org/2000/svg"
   xmlns:xlink="http://www.w3.org/1999/xlink"
   xmlns:sodipodi="http://sodipodi.sourceforge.net/DTD/sodipodi-0.dtd"
   xmlns:inkscape="http://www.inkscape.org/namespaces/inkscape"
   version="1.1"
   preserveAspectRatio="xMidYMid meet"
   viewBox="0 0 2312 430"
   width="2312"
   height="430"
   id="svg68"
   sodipodi:docname="full-dark.svg"
   inkscape:export-xdpi="96"
   inkscape:export-ydpi="96"
   inkscape:version="1.0.2 (e86c870879, 2021-01-15, custom)">
  <metadata
     id="metadata72">
    <rdf:RDF>
      <cc:Work
         rdf:about="">
        <dc:format>image/svg+xml</dc:format>
        <dc:type
           rdf:resource="http://purl.org/dc/dcmitype/StillImage" />
        <dc:title></dc:title>
      </cc:Work>
    </rdf:RDF>
  </metadata>
  <sodipodi:namedview
     pagecolor="#ffffff"
     bordercolor="#666666"
     borderopacity="1"
     objecttolerance="10"
     gridtolerance="10"
     guidetolerance="10"
     inkscape:pageopacity="0"
     inkscape:pageshadow="2"
     inkscape:window-width="2400"
     inkscape:window-height="1321"
     id="namedview70"
     showgrid="false"
     inkscape:snap-nodes="true"
     inkscape:snap-grids="true"
     inkscape:snap-to-guides="true"
     inkscape:snap-page="false"
     inkscape:zoom="256"
     inkscape:cx="2312.3085"
     inkscape:cy="258.29168"
     inkscape:window-x="-9"
     inkscape:window-y="131"
     inkscape:window-maximized="1"
     inkscape:current-layer="svg68" />
  <defs
     id="defs46">
    <path
       d="M 200,100 C 200,155.19 155.19,200 100,200 44.81,200 0,155.19 0,100 0,44.81 44.81,0 100,0 155.19,0 200,44.81 200,100 Z"
       id="dhZYd15Vf" />
    <path
       d="M 430,100 C 430,155.19 385.19,200 330,200 274.81,200 230,155.19 230,100 230,44.81 274.81,0 330,0 385.19,0 430,44.81 430,100 Z"
       id="b1PqPKiPLd" />
    <path
       d="M 200,329.29 C 200,384.95 155.19,430.14 100,430.14 44.81,430.14 0,384.95 0,329.29 0,273.63 44.81,228.44 100,228.44 c 55.19,0 100,45.19 100,100.85 z"
       id="b6XTrNc4C" />
    <path
       d="m 430,329.29 c 0,55.66 -44.81,100.85 -100,100.85 -55.19,0 -100,-45.19 -100,-100.85 0,-55.66 44.81,-100.85 100,-100.85 55.19,0 100,45.19 100,100.85 z"
       id="b43uDuMcAs" />
  </defs>
  <g
     id="g66"
     transform="scale(1.0034184)">
    <g
       id="g64">
      <g
         id="g50">
        <use
           xlink:href="#dhZYd15Vf"
           opacity="1"
           fill="#00a8a8"
           fill-opacity="1"
           id="use48"
           x="0"
           y="0"
           width="100%"
           height="100%" />
      </g>
      <g
         id="g54">
        <use
           xlink:href="#b1PqPKiPLd"
           opacity="1"
           fill="#cb4335"
           fill-opacity="1"
           id="use52"
           x="0"
           y="0"
           width="100%"
           height="100%" />
      </g>
      <g
         id="g58">
        <use
           xlink:href="#b6XTrNc4C"
           opacity="1"
           fill="#c6c6c6"
           fill-opacity="1"
           id="use56"
           x="0"
           y="0"
           width="100%"
           height="100%" />
      </g>
      <g
         id="g62">
        <use
           xlink:href="#b43uDuMcAs"
           opacity="1"
           fill="#229954"
           fill-opacity="1"
           id="use60"
           x="0"
           y="0"
           width="100%"
           height="100%" />
      </g>
    </g>
  </g>
  <text
     xml:space="preserve"
     style="font-weight:bold;font-size:359.051px;line-height:1.25;font-family:Inter;-inkscape-font-specification:'Inter Bold';fill:#ffffff;fill-opacity:1;stroke-width:1.07715;"
     x="503.33203"
     y="343.65143"
     id="text84"><tspan
       sodipodi:role="line"
       id="tspan82"
       x="503.33203"
       y="343.65143"
       style="fill:#1e1e1e;fill-opacity:1;stroke-width:1.07715;">Darkstone</tspan></text>
</svg>
