<?xml version="1.0" standalone="no"?>
<!DOCTYPE svg PUBLIC "-//W3C//DTD SVG 20010904//EN"
 "http://www.w3.org/TR/2001/REC-SVG-20010904/DTD/svg10.dtd">
<svg version="1.0" xmlns="http://www.w3.org/2000/svg"
 width="700.000000pt" height="700.000000pt" viewBox="0 0 700.000000 700.000000"
 preserveAspectRatio="xMidYMid meet">
<metadata>
Created by potrace 1.11, written by Peter Selinger 2001-2013
</metadata>
<g transform="translate(0.000000,700.000000) scale(0.100000,-0.100000)"
fill="#000000" stroke="none">
<path d="M1460 6994 c-504 -63 -928 -324 -1200 -739 -309 -473 -344 -1098 -90
-1605 163 -325 426 -587 743 -740 487 -234 1030 -220 1502 38 553 303 890 929
836 1552 -45 510 -302 945 -727 1230 -178 119 -398 208 -604 245 -91 16 -384
28 -460 19z"/>
<path d="M5200 6994 c-14 -2 -68 -11 -120 -20 -129 -22 -317 -84 -434 -144
-801 -407 -1127 -1361 -741 -2166 78 -161 175 -295 319 -440 218 -217 449
-352 737 -427 313 -83 616 -72 934 34 546 181 951 644 1076 1229 19 88 23 137
23 305 1 216 -7 280 -55 452 -166 592 -667 1046 -1279 1160 -81 15 -404 27
-460 17z"/>
<path d="M1466 3270 c-377 -43 -692 -191 -960 -449 -327 -317 -498 -722 -498
-1181 0 -460 173 -867 505 -1186 483 -466 1202 -584 1803 -295 474 228 793
637 905 1161 20 91 23 134 23 320 0 186 -3 229 -23 320 -145 677 -662 1182
-1326 1295 -113 19 -325 27 -429 15z"/>
<path d="M5190 3274 c-322 -39 -648 -185 -892 -401 -382 -338 -593 -861 -549
-1359 14 -159 33 -250 81 -395 189 -569 660 -980 1255 -1096 140 -28 465 -25
602 5 435 95 795 337 1038 697 64 95 158 290 194 402 58 180 76 297 76 513 0
216 -17 333 -75 513 -41 126 -146 332 -227 447 -87 121 -261 296 -383 382
-113 80 -300 175 -425 217 -168 56 -272 72 -475 76 -102 2 -201 1 -220 -1z"/>
</g>
</svg>
